<?xml version="1.0" standalone="no"?>
<!DOCTYPE svg PUBLIC "-//W3C//DTD SVG 20010904//EN"
 "http://www.w3.org/TR/2001/REC-SVG-20010904/DTD/svg10.dtd">
<svg version="1.0" xmlns="http://www.w3.org/2000/svg"
 width="2048.000000pt" height="2048.000000pt" viewBox="0 0 2048.000000 2048.000000"
 preserveAspectRatio="xMidYMid meet">

<g transform="translate(0.000000,2048.000000) scale(0.100000,-0.100000)"
fill="#000000" stroke="none">
<path d="M12610 17190 c-531 -114 -1530 -321 -2145 -445 -236 -47 -498 -101
-580 -120 -83 -19 -306 -66 -495 -104 -518 -105 -688 -140 -760 -156 -36 -8
-175 -37 -310 -65 -896 -186 -929 -194 -1052 -257 -223 -115 -395 -331 -466
-589 l-27 -99 -3 -4360 c-2 -3130 0 -4383 8 -4440 32 -234 110 -394 267 -547
114 -111 254 -188 427 -236 56 -15 287 -17 3111 -20 2102 -2 3079 0 3143 8
170 19 363 100 480 201 125 108 224 257 284 429 l33 95 0 4105 0 4105 -23 85
c-58 210 -168 371 -343 501 -144 107 -282 151 -553 179 -104 11 -191 22 -193
24 -2 2 -4 273 -4 602 1 330 -3 640 -8 689 -23 231 -155 395 -362 450 -93 25
-185 17 -429 -35z m140 -1141 l0 -502 -62 6 c-35 3 -155 15 -268 26 -217 22
-748 75 -915 92 -213 20 -764 70 -1055 94 -537 45 -994 86 -1020 92 -16 3 177
46 510 114 294 59 813 166 1152 238 340 72 751 158 915 191 164 33 393 80 508
104 116 24 216 44 223 45 9 1 12 -105 12 -500z m-4590 -699 c217 -22 616 -65
885 -95 270 -30 598 -64 730 -75 132 -11 344 -30 470 -41 272 -23 1088 -101
1365 -130 213 -22 726 -72 1220 -119 526 -50 803 -79 851 -90 63 -15 150 -86
180 -147 l24 -48 0 -4000 0 -4000 -21 -46 c-29 -61 -85 -116 -153 -148 l-56
-26 -2980 -3 c-2690 -2 -2985 -1 -3035 14 -73 21 -122 54 -159 108 -66 96 -61
-269 -61 4406 0 3758 2 4252 15 4297 21 70 90 146 158 173 61 24 28 26 567
-30z"/>
<path d="M9815 13474 c-11 -3 -56 -14 -99 -25 -162 -41 -324 -137 -443 -263
-118 -124 -182 -239 -231 -416 -23 -82 -26 -114 -26 -235 0 -120 4 -154 27
-240 32 -118 105 -272 175 -370 48 -67 719 -761 980 -1013 141 -136 189 -172
269 -202 93 -35 177 -43 268 -25 163 31 149 19 765 638 305 308 571 582 592
611 101 143 170 331 189 519 10 96 10 126 -5 208 -73 428 -352 724 -764 808
-86 18 -275 13 -374 -9 -155 -34 -329 -125 -440 -230 l-42 -40 -35 30 c-86 73
-160 124 -245 166 -136 67 -213 85 -391 89 -82 2 -159 2 -170 -1z"/>
<path d="M9425 9578 c-51 -19 -114 -68 -141 -110 -83 -131 -41 -295 96 -372
l55 -31 1210 -3 1209 -2 53 26 c84 41 153 151 153 244 0 61 -31 132 -79 180
-86 86 13 80 -1335 79 -818 0 -1200 -4 -1221 -11z"/>
<path d="M8681 8339 c-115 -34 -191 -137 -191 -261 1 -102 49 -180 144 -231
l41 -22 1975 0 1975 0 40 22 c47 25 106 85 129 130 61 121 5 278 -121 339
l-58 29 -1950 2 c-1238 1 -1962 -2 -1984 -8z"/>
<path d="M4683 11940 c-79 -16 -157 -68 -204 -136 -37 -54 -63 -154 -55 -212
14 -100 28 -118 429 -522 l382 -385 -1095 -5 -1095 -5 -52 -27 c-76 -41 -118
-82 -152 -149 -42 -85 -48 -151 -22 -237 26 -87 87 -159 169 -199 l57 -28
1089 -5 1089 -5 -380 -385 c-350 -355 -381 -390 -399 -440 -55 -163 11 -327
163 -402 55 -27 78 -32 137 -33 135 0 146 7 462 333 153 158 445 457 649 665
428 436 440 453 440 586 0 89 -15 143 -52 198 -16 23 -318 336 -673 697 -578
589 -650 658 -695 675 -63 23 -138 31 -192 21z"/>
<path d="M15542 11762 c-202 -73 -288 -347 -162 -520 37 -52 111 -107 170
-127 25 -8 115 -19 200 -25 207 -13 326 -43 459 -116 143 -79 302 -227 389
-364 60 -92 123 -239 156 -360 l31 -115 3 -2065 c3 -2273 4 -2221 -57 -2456
-54 -204 -189 -479 -316 -644 -110 -143 -278 -300 -433 -403 -139 -92 -387
-193 -569 -231 -176 -37 -211 -37 -4453 -34 l-4155 3 -114 22 c-358 70 -656
235 -923 512 -231 239 -390 539 -465 875 -14 61 -17 203 -22 966 l-6 895 -33
67 c-37 75 -101 139 -172 171 -56 25 -171 34 -239 17 -66 -16 -151 -77 -189
-137 -64 -101 -62 -72 -62 -989 0 -875 3 -950 46 -1169 74 -372 262 -771 499
-1054 91 -110 304 -313 416 -397 339 -254 744 -420 1138 -464 68 -8 1348 -10
4411 -7 3947 3 4322 5 4392 20 266 56 445 116 652 219 309 154 619 405 818
662 258 332 436 742 492 1131 36 250 37 342 34 2460 -4 2247 -1 2119 -52 2340
-149 642 -698 1169 -1361 1306 -71 14 -153 22 -285 25 -164 4 -191 2 -238 -14z"/>
</g>
</svg>
